<mxfile host="app.diagrams.net" modified="2024-05-20T00:30:01.034Z" agent="Mozilla/5.0 (X11; Linux x86_64) AppleWebKit/537.36 (KHTML, like Gecko) Chrome/125.0.0.0 Safari/537.36" etag="4E_NIpWgutZBYWTdoVB1" version="24.4.4" type="device">
  <diagram id="C5RBs43oDa-KdzZeNtuy" name="Page-1">
    <mxGraphModel dx="1024" dy="1738" grid="1" gridSize="10" guides="1" tooltips="1" connect="1" arrows="1" fold="1" page="1" pageScale="1" pageWidth="827" pageHeight="1169" math="0" shadow="0">
      <root>
        <mxCell id="WIyWlLk6GJQsqaUBKTNV-0" />
        <mxCell id="WIyWlLk6GJQsqaUBKTNV-1" parent="WIyWlLk6GJQsqaUBKTNV-0" />
        <mxCell id="S7_N-UKr1pL8a_zZHFVc-5" value="calculate(a, b, x, k)" style="strokeWidth=2;html=1;shape=mxgraph.flowchart.terminator;whiteSpace=wrap;" parent="WIyWlLk6GJQsqaUBKTNV-1" vertex="1">
          <mxGeometry x="350" y="-600" width="120" height="60" as="geometry" />
        </mxCell>
        <mxCell id="SRNSHd6ge_EsEEtdElFu-7" value="" style="edgeStyle=orthogonalEdgeStyle;rounded=0;orthogonalLoop=1;jettySize=auto;html=1;" parent="WIyWlLk6GJQsqaUBKTNV-1" target="SRNSHd6ge_EsEEtdElFu-6" edge="1">
          <mxGeometry relative="1" as="geometry">
            <mxPoint x="410.0434782608695" y="-540" as="sourcePoint" />
          </mxGeometry>
        </mxCell>
        <mxCell id="SRNSHd6ge_EsEEtdElFu-6" value="k=0" style="rounded=1;whiteSpace=wrap;html=1;absoluteArcSize=1;arcSize=14;strokeWidth=2;strokeColor=default;align=center;verticalAlign=middle;fillColor=default;" parent="WIyWlLk6GJQsqaUBKTNV-1" vertex="1">
          <mxGeometry x="310" y="-510" width="200" height="60" as="geometry" />
        </mxCell>
        <mxCell id="SRNSHd6ge_EsEEtdElFu-37" style="edgeStyle=orthogonalEdgeStyle;rounded=0;orthogonalLoop=1;jettySize=auto;html=1;entryX=0.5;entryY=0;entryDx=0;entryDy=0;" parent="WIyWlLk6GJQsqaUBKTNV-1" source="SRNSHd6ge_EsEEtdElFu-8" edge="1">
          <mxGeometry relative="1" as="geometry">
            <Array as="points">
              <mxPoint x="800" y="-390" />
              <mxPoint x="800" y="640" />
              <mxPoint x="410" y="640" />
            </Array>
            <mxPoint x="410" y="670" as="targetPoint" />
          </mxGeometry>
        </mxCell>
        <mxCell id="SRNSHd6ge_EsEEtdElFu-24" style="edgeStyle=orthogonalEdgeStyle;rounded=0;orthogonalLoop=1;jettySize=auto;html=1;entryX=0.5;entryY=0;entryDx=0;entryDy=0;" parent="WIyWlLk6GJQsqaUBKTNV-1" target="SRNSHd6ge_EsEEtdElFu-23" edge="1">
          <mxGeometry relative="1" as="geometry">
            <Array as="points">
              <mxPoint x="600" y="-30" />
              <mxPoint x="600" y="110" />
              <mxPoint x="410" y="110" />
            </Array>
            <mxPoint x="510" y="-29.947368421052488" as="sourcePoint" />
          </mxGeometry>
        </mxCell>
        <mxCell id="SRNSHd6ge_EsEEtdElFu-38" style="edgeStyle=orthogonalEdgeStyle;rounded=0;orthogonalLoop=1;jettySize=auto;html=1;entryX=0;entryY=0.5;entryDx=0;entryDy=0;entryPerimeter=0;exitX=0;exitY=0.5;exitDx=0;exitDy=0;" parent="WIyWlLk6GJQsqaUBKTNV-1" source="SRNSHd6ge_EsEEtdElFu-35" edge="1">
          <mxGeometry relative="1" as="geometry">
            <Array as="points">
              <mxPoint x="150" y="590" />
              <mxPoint x="150" y="-390" />
            </Array>
            <mxPoint x="310" y="-390" as="targetPoint" />
          </mxGeometry>
        </mxCell>
        <mxCell id="gohF25LUEKTXvDDzDyy9-11" style="edgeStyle=orthogonalEdgeStyle;rounded=0;orthogonalLoop=1;jettySize=auto;html=1;entryX=0.5;entryY=0;entryDx=0;entryDy=0;exitX=1;exitY=0.5;exitDx=0;exitDy=0;exitPerimeter=0;" edge="1" parent="WIyWlLk6GJQsqaUBKTNV-1" source="gohF25LUEKTXvDDzDyy9-5" target="gohF25LUEKTXvDDzDyy9-8">
          <mxGeometry relative="1" as="geometry" />
        </mxCell>
        <mxCell id="gohF25LUEKTXvDDzDyy9-34" value="Нет" style="edgeLabel;html=1;align=center;verticalAlign=middle;resizable=0;points=[];" vertex="1" connectable="0" parent="gohF25LUEKTXvDDzDyy9-11">
          <mxGeometry x="0.0578" y="-2" relative="1" as="geometry">
            <mxPoint as="offset" />
          </mxGeometry>
        </mxCell>
        <mxCell id="gohF25LUEKTXvDDzDyy9-12" style="edgeStyle=orthogonalEdgeStyle;rounded=0;orthogonalLoop=1;jettySize=auto;html=1;entryX=0.5;entryY=0;entryDx=0;entryDy=0;exitX=0;exitY=0.5;exitDx=0;exitDy=0;exitPerimeter=0;" edge="1" parent="WIyWlLk6GJQsqaUBKTNV-1" source="gohF25LUEKTXvDDzDyy9-5" target="gohF25LUEKTXvDDzDyy9-7">
          <mxGeometry relative="1" as="geometry" />
        </mxCell>
        <mxCell id="gohF25LUEKTXvDDzDyy9-32" value="Да" style="edgeLabel;html=1;align=center;verticalAlign=middle;resizable=0;points=[];" vertex="1" connectable="0" parent="gohF25LUEKTXvDDzDyy9-12">
          <mxGeometry x="0.1029" relative="1" as="geometry">
            <mxPoint as="offset" />
          </mxGeometry>
        </mxCell>
        <mxCell id="gohF25LUEKTXvDDzDyy9-5" value="a - k &lt; 1" style="strokeWidth=2;html=1;shape=mxgraph.flowchart.decision;whiteSpace=wrap;" vertex="1" parent="WIyWlLk6GJQsqaUBKTNV-1">
          <mxGeometry x="310" y="-420" width="200" height="60" as="geometry" />
        </mxCell>
        <mxCell id="gohF25LUEKTXvDDzDyy9-13" style="edgeStyle=orthogonalEdgeStyle;rounded=0;orthogonalLoop=1;jettySize=auto;html=1;entryX=0.5;entryY=0;entryDx=0;entryDy=0;exitX=0;exitY=0.5;exitDx=0;exitDy=0;exitPerimeter=0;" edge="1" parent="WIyWlLk6GJQsqaUBKTNV-1" source="gohF25LUEKTXvDDzDyy9-6" target="gohF25LUEKTXvDDzDyy9-9">
          <mxGeometry relative="1" as="geometry" />
        </mxCell>
        <mxCell id="gohF25LUEKTXvDDzDyy9-35" value="Да" style="edgeLabel;html=1;align=center;verticalAlign=middle;resizable=0;points=[];" vertex="1" connectable="0" parent="gohF25LUEKTXvDDzDyy9-13">
          <mxGeometry x="0.0519" y="1" relative="1" as="geometry">
            <mxPoint as="offset" />
          </mxGeometry>
        </mxCell>
        <mxCell id="gohF25LUEKTXvDDzDyy9-14" style="edgeStyle=orthogonalEdgeStyle;rounded=0;orthogonalLoop=1;jettySize=auto;html=1;entryX=0.5;entryY=0;entryDx=0;entryDy=0;exitX=1;exitY=0.5;exitDx=0;exitDy=0;exitPerimeter=0;" edge="1" parent="WIyWlLk6GJQsqaUBKTNV-1" source="gohF25LUEKTXvDDzDyy9-6" target="gohF25LUEKTXvDDzDyy9-10">
          <mxGeometry relative="1" as="geometry" />
        </mxCell>
        <mxCell id="gohF25LUEKTXvDDzDyy9-36" value="Нет" style="edgeLabel;html=1;align=center;verticalAlign=middle;resizable=0;points=[];" vertex="1" connectable="0" parent="gohF25LUEKTXvDDzDyy9-14">
          <mxGeometry x="0.1494" y="-1" relative="1" as="geometry">
            <mxPoint as="offset" />
          </mxGeometry>
        </mxCell>
        <mxCell id="gohF25LUEKTXvDDzDyy9-6" value="b - k &lt; 1" style="strokeWidth=2;html=1;shape=mxgraph.flowchart.decision;whiteSpace=wrap;" vertex="1" parent="WIyWlLk6GJQsqaUBKTNV-1">
          <mxGeometry x="310" y="-254" width="200" height="60" as="geometry" />
        </mxCell>
        <mxCell id="gohF25LUEKTXvDDzDyy9-7" value="a_minus_k = 1" style="rounded=1;whiteSpace=wrap;html=1;absoluteArcSize=1;arcSize=14;strokeWidth=2;strokeColor=default;align=center;verticalAlign=middle;fillColor=default;" vertex="1" parent="WIyWlLk6GJQsqaUBKTNV-1">
          <mxGeometry x="200" y="-353" width="200" height="60" as="geometry" />
        </mxCell>
        <mxCell id="gohF25LUEKTXvDDzDyy9-16" style="edgeStyle=orthogonalEdgeStyle;rounded=0;orthogonalLoop=1;jettySize=auto;html=1;exitX=0.5;exitY=1;exitDx=0;exitDy=0;" edge="1" parent="WIyWlLk6GJQsqaUBKTNV-1" source="gohF25LUEKTXvDDzDyy9-8">
          <mxGeometry relative="1" as="geometry">
            <mxPoint x="410" y="-270" as="targetPoint" />
            <Array as="points">
              <mxPoint x="520" y="-270" />
            </Array>
          </mxGeometry>
        </mxCell>
        <mxCell id="gohF25LUEKTXvDDzDyy9-8" value="a_minus_k =&amp;nbsp;a - k" style="rounded=1;whiteSpace=wrap;html=1;absoluteArcSize=1;arcSize=14;strokeWidth=2;strokeColor=default;align=center;verticalAlign=middle;fillColor=default;" vertex="1" parent="WIyWlLk6GJQsqaUBKTNV-1">
          <mxGeometry x="420" y="-353" width="200" height="60" as="geometry" />
        </mxCell>
        <mxCell id="gohF25LUEKTXvDDzDyy9-9" value="b_minus_k = 1" style="rounded=1;whiteSpace=wrap;html=1;absoluteArcSize=1;arcSize=14;strokeWidth=2;strokeColor=default;align=center;verticalAlign=middle;fillColor=default;" vertex="1" parent="WIyWlLk6GJQsqaUBKTNV-1">
          <mxGeometry x="200" y="-190" width="200" height="60" as="geometry" />
        </mxCell>
        <mxCell id="gohF25LUEKTXvDDzDyy9-31" style="edgeStyle=orthogonalEdgeStyle;rounded=0;orthogonalLoop=1;jettySize=auto;html=1;exitX=0.5;exitY=1;exitDx=0;exitDy=0;" edge="1" parent="WIyWlLk6GJQsqaUBKTNV-1" source="gohF25LUEKTXvDDzDyy9-10">
          <mxGeometry relative="1" as="geometry">
            <mxPoint x="410" y="-110" as="targetPoint" />
          </mxGeometry>
        </mxCell>
        <mxCell id="gohF25LUEKTXvDDzDyy9-10" value="b_minus_k =&amp;nbsp;b - k" style="rounded=1;whiteSpace=wrap;html=1;absoluteArcSize=1;arcSize=14;strokeWidth=2;strokeColor=default;align=center;verticalAlign=middle;fillColor=default;" vertex="1" parent="WIyWlLk6GJQsqaUBKTNV-1">
          <mxGeometry x="420" y="-190" width="200" height="60" as="geometry" />
        </mxCell>
        <mxCell id="gohF25LUEKTXvDDzDyy9-15" style="edgeStyle=orthogonalEdgeStyle;rounded=0;orthogonalLoop=1;jettySize=auto;html=1;entryX=0.5;entryY=0;entryDx=0;entryDy=0;entryPerimeter=0;" edge="1" parent="WIyWlLk6GJQsqaUBKTNV-1" source="gohF25LUEKTXvDDzDyy9-7" target="gohF25LUEKTXvDDzDyy9-6">
          <mxGeometry relative="1" as="geometry">
            <Array as="points">
              <mxPoint x="300" y="-280" />
              <mxPoint x="410" y="-280" />
            </Array>
          </mxGeometry>
        </mxCell>
        <mxCell id="gohF25LUEKTXvDDzDyy9-21" value="" style="edgeStyle=orthogonalEdgeStyle;rounded=0;orthogonalLoop=1;jettySize=auto;html=1;" edge="1" parent="WIyWlLk6GJQsqaUBKTNV-1" source="gohF25LUEKTXvDDzDyy9-17" target="gohF25LUEKTXvDDzDyy9-20">
          <mxGeometry relative="1" as="geometry" />
        </mxCell>
        <mxCell id="gohF25LUEKTXvDDzDyy9-37" value="Да" style="edgeLabel;html=1;align=center;verticalAlign=middle;resizable=0;points=[];" vertex="1" connectable="0" parent="gohF25LUEKTXvDDzDyy9-21">
          <mxGeometry x="-0.4914" relative="1" as="geometry">
            <mxPoint as="offset" />
          </mxGeometry>
        </mxCell>
        <mxCell id="gohF25LUEKTXvDDzDyy9-26" value="" style="edgeStyle=orthogonalEdgeStyle;rounded=0;orthogonalLoop=1;jettySize=auto;html=1;" edge="1" parent="WIyWlLk6GJQsqaUBKTNV-1" source="gohF25LUEKTXvDDzDyy9-17" target="gohF25LUEKTXvDDzDyy9-22">
          <mxGeometry relative="1" as="geometry" />
        </mxCell>
        <mxCell id="gohF25LUEKTXvDDzDyy9-38" value="Нет" style="edgeLabel;html=1;align=center;verticalAlign=middle;resizable=0;points=[];" vertex="1" connectable="0" parent="gohF25LUEKTXvDDzDyy9-26">
          <mxGeometry x="-0.3429" y="1" relative="1" as="geometry">
            <mxPoint as="offset" />
          </mxGeometry>
        </mxCell>
        <mxCell id="gohF25LUEKTXvDDzDyy9-17" value="a_minus_k == 1 &amp;amp;&amp;amp;&lt;div&gt;b_minus_k == 1&lt;/div&gt;" style="strokeWidth=2;html=1;shape=mxgraph.flowchart.decision;whiteSpace=wrap;" vertex="1" parent="WIyWlLk6GJQsqaUBKTNV-1">
          <mxGeometry x="310" y="-90" width="200" height="60" as="geometry" />
        </mxCell>
        <mxCell id="gohF25LUEKTXvDDzDyy9-20" value="Возврат&lt;div&gt;a_minus_k * x + b_minus_k&lt;br&gt;&lt;/div&gt;" style="strokeWidth=2;html=1;shape=mxgraph.flowchart.terminator;whiteSpace=wrap;" vertex="1" parent="WIyWlLk6GJQsqaUBKTNV-1">
          <mxGeometry x="360" width="100" height="60" as="geometry" />
        </mxCell>
        <mxCell id="gohF25LUEKTXvDDzDyy9-29" style="edgeStyle=orthogonalEdgeStyle;rounded=0;orthogonalLoop=1;jettySize=auto;html=1;" edge="1" parent="WIyWlLk6GJQsqaUBKTNV-1" source="gohF25LUEKTXvDDzDyy9-22">
          <mxGeometry relative="1" as="geometry">
            <mxPoint x="410" y="-440" as="targetPoint" />
            <Array as="points">
              <mxPoint x="640" y="-440" />
              <mxPoint x="410" y="-440" />
            </Array>
          </mxGeometry>
        </mxCell>
        <mxCell id="gohF25LUEKTXvDDzDyy9-22" value="Возврат&lt;div&gt;(a_minus_k * x + b_minus_k) * calculate(a, b, x, k + 1)&lt;br&gt;&lt;/div&gt;" style="strokeWidth=2;html=1;shape=mxgraph.flowchart.terminator;whiteSpace=wrap;" vertex="1" parent="WIyWlLk6GJQsqaUBKTNV-1">
          <mxGeometry x="550" y="-90" width="183.34" height="60" as="geometry" />
        </mxCell>
        <mxCell id="gohF25LUEKTXvDDzDyy9-28" style="edgeStyle=orthogonalEdgeStyle;rounded=0;orthogonalLoop=1;jettySize=auto;html=1;entryX=0.5;entryY=0;entryDx=0;entryDy=0;entryPerimeter=0;" edge="1" parent="WIyWlLk6GJQsqaUBKTNV-1" source="SRNSHd6ge_EsEEtdElFu-6" target="gohF25LUEKTXvDDzDyy9-5">
          <mxGeometry relative="1" as="geometry" />
        </mxCell>
        <mxCell id="gohF25LUEKTXvDDzDyy9-30" style="edgeStyle=orthogonalEdgeStyle;rounded=0;orthogonalLoop=1;jettySize=auto;html=1;entryX=0.5;entryY=0;entryDx=0;entryDy=0;entryPerimeter=0;" edge="1" parent="WIyWlLk6GJQsqaUBKTNV-1" source="gohF25LUEKTXvDDzDyy9-9" target="gohF25LUEKTXvDDzDyy9-17">
          <mxGeometry relative="1" as="geometry">
            <Array as="points">
              <mxPoint x="300" y="-121" />
              <mxPoint x="410" y="-121" />
            </Array>
          </mxGeometry>
        </mxCell>
      </root>
    </mxGraphModel>
  </diagram>
</mxfile>
